<?xml version="1.0" encoding="utf-8"?>
<!-- Generator: Adobe Illustrator 15.0.0, SVG Export Plug-In . SVG Version: 6.00 Build 0)  -->
<!DOCTYPE svg PUBLIC "-//W3C//DTD SVG 1.1//EN" "http://www.w3.org/Graphics/SVG/1.1/DTD/svg11.dtd">
<svg version="1.1" id="abdula_6_xA0_Image_1_" xmlns="http://www.w3.org/2000/svg" xmlns:xlink="http://www.w3.org/1999/xlink"
	 x="0px" y="0px" width="297.6px" height="571.2px" fill="#00F200" viewBox="0 0 297.6 571.2" enable-background="new 0 0 297.6 571.2"
	 xml:space="preserve">
<g>
	<path d="M60.644,91.787c-8.382-27.063,0.447-62.668,26.357-65.756c10.772-1.284,18.852,3.807,25.023,12.361
		c12.107,16.782,17.122,42.514,20.419,62.53c0.613,4.95,0.901,11.64,0.955,19.368c-22.445,2.465-49.922,8.744-69.875,17.576
		c-6.082,2.692-15.712,6.622-18.72,11.04c-4.634,6.805-1.308,18.854-0.96,28.32c10.861-10,27.498-17.628,45.12-23.041
		c14.198-4.359,30.318-8.084,43.946-7.267c-1.366,37.094-5.066,79.267-5.066,79.267c-21.727,10.442-55.187,10.594-81.118,10.561
		c-1.292-0.001,0.575,6.864,0.536,7.182c-0.013,0.041-0.277,0.22-0.312,0.26c0.058,0.055,0.31,0.182,0.349,0.243
		c0.145,3.377,0.478,6.75,0.722,10.122c0,0,1.465,0.429,4.062,1.032l-3.438,5.641c-11.531,17.191-23.394,40.724-26.97,66.088
		c0,0-20.701,67.07,64.41,101.432c10.774,5.866,22.811,10.469,38.88,11.04c5.357,60.074,24.07,103.663,85.92,108
		c35.391,2.481,56.561-11.627,64.801-40.8c2.234-7.911,2.566-21.678,1.439-31.681c-1.412-12.524-6.541-25.492-13.92-36.479
		c-7.123-10.606-16.838-21.069-28.32-22.08c-23.723-2.088-42.363,1.768-53.279,14.4c-5.777,6.684-10.463,15.611-10.561,27.84
		c-0.141,17.525,9.629,35.548,19.199,45.12c11.766,11.765,29.842,15.471,50.881,16.8c-7.131,8.937-16.121,19.575-30.721,19.68
		c-23.148,0.166-38.707-24.883-46.56-44.16c-0.727-1.785-1.488-3.682-2.227-5.62c-0.867-2.271-1.697-4.599-2.408-6.884
		c-1.043-3.358-1.812-6.612-2.021-9.432c-1.717-9.235-3.201-20.202-4.16-27.922c-0.486-3.075-0.936-6.189-1.121-9.565
		c-0.004-0.069-0.01-0.138-0.012-0.208c-0.016-0.284-0.039-0.56-0.051-0.849c1.707-0.239,2.859-1.033,3.828-2.008
		c40.661-21.791,51.757-43.593,51.749-43.589c3.234-4.36,6.611-9.553,9.223-15.363c3.412-7.59,9.641-16.895,7.68-26.88
		c-2.145-10.926-17.916-13.92-30.24-13.921c-16.857,0-31.37,5.226-47.519,5.28c0.146-25.379-0.698-45.577-3.619-66.56
		c-0.003-0.549-0.006-1.098-0.008-1.65c26.529-6.662,59.975,0.271,62.188,26.931c4.75-1.579,6.891-6.096,9.6-10.561
		c2.34-3.854,6.262-8.736,6.24-13.44c-0.035-7.224-8.074-16.111-15.84-20.64c-16.688-9.729-44.731-10.464-62.226-1.299
		c0.001-1.618,0.002-3.24,0.005-4.865c12.96-8.003,28.817-15.859,37.741-29.836c7.736-12.116,14.479-34.382,14.4-53.76
		c-0.117-29.504-19.084-44.319-51.84-43.681c-0.49-3.82-1.012-7.831-1.604-11.948c-2.052-14.247-5.003-29.818-10.875-43.732
		c-7.777-18.427-19.347-46.924-47.04-40.32C70.295,27.3,59.997,38.412,56.248,53.269c-4.083,15.256,0.225,28.924,2.786,35.072
		 M215.204,446.987c-0.287,2.784,3.633,2.896,5.76,4.8c7.391,6.613,14.293,25.033,15.359,38.88c0.74,9.591-0.602,18.854-8.16,21.12
		c-0.318,0-0.639,0-0.959,0c-20.994-10.483-39.967-53.973-20.641-78.72c3.133-4.011,7.291-6.888,12-10.08
		c9.676,4.885,15.99,13.13,21.6,22.08C233.805,445.329,219.905,441.484,215.204,446.987z M144.772,155.5l0.351-9.474
		c15.511,0.687,29.45,5.657,36.481,15.361c2.881,3.977,6.762,11.557,6.24,17.279c-0.482,5.274-7.504,14.704-11.521,18.721
		c-3.996,3.995-10.688,8.234-16.319,12.479c-5.65,4.259-11.222,9.439-16.997,10.747C146.146,207.079,145.87,179.801,144.772,155.5z
		 M45.283,267.947C44.969,267.633,45.485,268.148,45.283,267.947L45.283,267.947z M38.563,279.467
		C38.765,279.669,38.249,279.152,38.563,279.467L38.563,279.467z M122.131,328.386c-0.227,4.604-0.419,9.239-0.528,13.961
		c-16.57,0.17-35.433-4.053-43.2-16.319c-1.85-2.921-4.204-8.287-3.36-12.96c0.692-3.835,6.934-8.954,10.56-12
		c11.077-9.307,24.661-15.752,38.88-21.601c-0.241,16.75-1.537,32.444-2.339,48.633l-0.019,0.286H122.131z M126.403,259.308
		c-28.599,12.094-57.013,30.709-60,70.079c-1.251,16.497,5.848,26.347,17.429,31.125l-0.006,0.002c0,0,17.386,8.234,37.83,4.726h0
		c0.37,17.182,1.753,35.337,1.868,51.027c-32.517,0.226-52.777-13.879-71.52-31.199c-15.425-14.255-26.823-31.808-27.36-56.16
		c-0.589-26.736,13.118-47.747,25.44-65.724l0,0l0,0c1.63-2.378,3.236-4.705,4.781-6.982c13.152,2.753,43.223,7.06,72.034-2.864
		C126.954,255.547,126.827,257.575,126.403,259.308z M219.436,360.494l0.004,0.02l-0.005-0.016
		C219.435,360.497,219.436,360.495,219.436,360.494z M164.682,360.525c10.899-3.114,37.255-9.076,54.752-0.015
		c-1.166,6.404-7.861,12.828-11.91,16.876c-15.627,15.627-34.732,30.355-57.12,35.521c-0.818-16.303-1.91-32.33-2.88-48.48
		c5.604-1,12.78-2.113,16.489-3.707c0.107-0.031,0.207-0.062,0.318-0.094"/>
	<path d="M275.294,379.815c10.233-11.476-9.4-32.028-22.619-29.518c-18.63,3.544-17.878,21.818-8.853,31.979
		C250.965,390.317,263.292,393.274,275.294,379.815z"/>
	<path d="M109.516,476.907c9.523-10.678-8.748-29.804-21.048-27.467c-17.335,3.298-16.636,20.303-8.238,29.757
		C86.877,486.681,98.348,489.432,109.516,476.907z"/>
	<path d="M95.403,493.272c-17.336,3.299-16.636,20.304-8.238,29.758c6.646,7.483,18.117,10.234,29.286-2.29
		C125.974,510.062,107.703,490.937,95.403,493.272z"/>
	<path d="M59.034,88.341c0.425,1.707,0.952,2.938,1.61,3.446"/>
</g>
</svg>
